<svg version="1.1" id="Layer_1" xmlns="http://www.w3.org/2000/svg" xmlns:xlink="http://www.w3.org/1999/xlink" x="0px" y="0px"
	 width="100%" viewBox="0 0 224 118" enable-background="new 0 0 224 118" xml:space="preserve">
<path fill="#000000" opacity="1.000000" stroke="none" 
	d="
M1.000001,107.000000 
	C1.000000,71.703583 1.000000,36.407166 1.000000,1.055375 
	C75.551704,1.055375 150.103455,1.055375 225.000000,1.055375 
	C225.000000,30.353327 225.000000,59.708004 224.635147,89.529617 
	C222.324585,90.255943 220.112350,91.236404 218.484863,90.634834 
	C214.196396,89.049698 210.182343,89.066124 207.322647,92.590302 
	C204.130219,96.524536 203.784546,101.607330 205.808289,106.088280 
	C207.903732,110.728065 212.460617,111.504768 217.204773,110.826080 
	C217.937103,110.721313 218.649765,110.478981 220.109055,110.117653 
	C219.093491,115.531036 215.132843,113.931702 212.695404,113.997147 
	C208.786057,114.102097 207.358719,115.192162 209.000000,119.000000 
	C163.312439,119.000000 117.624878,119.000000 71.348709,118.613853 
	C69.788055,115.747719 68.816010,113.267738 67.492195,109.890274 
	C70.029442,110.419701 71.264725,110.755470 72.522415,110.926697 
	C78.742416,111.773506 82.719940,108.496208 83.585045,101.860870 
	C84.269623,96.610161 80.230019,90.310051 75.314537,90.163116 
	C70.006088,90.004448 64.666122,90.900253 59.339901,91.336090 
	C59.284180,91.712624 59.228458,92.089157 59.172737,92.465698 
	C60.430931,93.005852 61.689129,93.546013 62.969063,94.548187 
	C63.047832,100.983665 63.104862,106.957123 63.092224,113.133636 
	C63.022564,113.336700 62.931896,113.756371 62.613125,113.818207 
	C61.556938,114.313431 60.819523,114.746834 59.759361,115.337471 
	C59.291077,116.663139 59.145538,117.831566 59.000000,119.000000 
	C54.310745,119.000000 49.621487,119.000000 44.360962,118.634537 
	C43.143826,115.711258 42.497963,113.153442 41.708729,110.027824 
	C50.323627,112.027901 55.654953,109.556999 56.903759,103.852776 
	C58.278618,97.572762 54.066513,90.046677 48.344810,89.878349 
	C43.379322,89.732269 38.372528,90.990364 34.243099,91.518082 
	C34.895634,94.097771 35.888958,96.290527 35.927956,98.500130 
	C36.050838,105.463036 37.030624,112.610588 33.000000,119.000000 
	C22.333254,119.000000 11.666509,119.000000 1.000000,119.000000 
	C1.000000,116.598305 1.000000,114.293884 1.443924,111.491547 
	C4.843318,110.824593 7.798787,110.655556 11.924769,110.419579 
	C10.211378,108.200706 9.459696,107.227272 8.701171,106.244965 
	C10.595787,103.502617 18.996161,101.432220 21.304031,103.435753 
	C21.973007,104.016510 22.080473,105.997047 21.635855,106.963478 
	C20.403400,109.642395 21.506487,110.712196 23.935350,110.915405 
	C26.176510,111.102905 28.445704,110.955315 31.590723,110.955315 
	C29.419750,107.314339 27.538034,104.604240 26.115707,101.671364 
	C23.830214,96.958618 22.032396,92.003456 19.629641,87.356987 
	C18.877838,85.903145 16.814877,84.235283 15.400366,84.277641 
	C14.095731,84.316704 12.415961,86.300156 11.669142,87.807541 
	C9.341192,92.506287 7.540915,97.467453 5.190730,102.153694 
	C4.262656,104.004257 2.424020,105.398163 1.000001,107.000000 
M127.610939,25.190495 
	C117.744415,25.182173 107.877884,25.173851 97.303535,25.223055 
	C92.253387,27.169836 88.637466,30.387711 86.884125,35.752270 
	C86.437141,37.119884 84.486237,38.229305 82.986313,38.973892 
	C79.119720,40.893349 76.103134,43.206615 75.975563,48.052063 
	C75.747498,56.714466 78.599380,60.087212 87.886055,61.525280 
	C87.970299,63.214977 88.057327,64.960648 88.145981,66.738762 
	C91.284744,66.738762 94.026947,66.738762 97.078873,66.738762 
	C97.078873,64.682800 97.078873,62.879902 98.006477,61.009769 
	C106.888390,61.006474 115.770744,60.957783 124.651787,61.043858 
	C126.160164,61.058479 127.662918,61.651661 129.027527,62.851803 
	C129.027527,64.122925 129.027527,65.394043 129.027527,66.614227 
	C137.372482,67.413116 137.372482,67.413116 138.565048,61.242371 
	C144.871277,60.662712 148.527069,58.441574 149.677765,53.583279 
	C150.691177,49.304493 150.455765,44.484890 146.343079,42.076035 
	C141.442062,39.205444 138.064590,35.732021 135.640762,30.532154 
	C134.602936,28.305672 130.687881,27.420355 127.610939,25.190495 
M91.984154,17.561007 
	C96.331535,16.363987 100.814346,15.513593 104.991684,13.881371 
	C110.104012,11.883812 114.910362,11.826577 120.137642,13.472274 
	C128.141983,15.992269 136.292770,18.069036 144.442719,20.086176 
	C146.088623,20.493544 148.007553,19.797894 149.800598,19.610777 
	C149.791580,19.058365 149.782562,18.505955 149.773544,17.953543 
	C148.283096,17.004341 146.910172,15.674134 145.281860,15.171864 
	C138.219193,12.993303 131.114044,10.932756 123.959793,9.078255 
	C119.716850,7.978413 115.079788,5.968335 111.097588,6.762527 
	C100.416786,8.892653 89.966461,12.222343 79.499763,15.328844 
	C78.124542,15.737006 77.188286,17.624144 76.048714,18.826281 
	C77.669281,19.396435 79.371971,20.604120 80.893852,20.408098 
	C84.393318,19.957357 87.804779,18.823462 91.984154,17.561007 
M148.430649,103.952553 
	C149.317993,106.003876 150.205338,108.055199 151.352753,110.707771 
	C153.504684,110.707771 156.566101,110.707771 161.199997,110.707771 
	C159.306091,108.848740 158.273056,107.950012 157.376266,106.931343 
	C155.266571,104.534943 152.011551,102.267738 151.597763,99.581932 
	C151.343170,97.929382 155.479034,95.611549 157.613785,93.561432 
	C157.812241,93.370834 157.795486,92.956146 158.150482,91.630325 
	C155.515259,91.343765 152.981812,91.068275 151.622147,90.920425 
	C149.030991,93.678482 147.127167,95.704948 145.223328,97.731422 
	C144.732605,97.462730 144.241882,97.194038 143.751160,96.925346 
	C143.751160,92.042931 143.751160,87.160515 143.751160,81.906853 
	C140.483124,82.086281 137.877121,82.229362 135.271133,82.372437 
	C141.416870,85.933250 138.994873,91.388260 138.842667,95.698151 
	C138.691116,99.989281 141.958420,105.737289 134.555664,108.108910 
	C137.345963,112.860229 141.583679,110.407364 144.935089,110.876015 
	C145.780136,110.994194 146.793701,109.907417 147.729828,109.374367 
	C147.081848,108.564636 146.294540,107.828354 145.819656,106.927399 
	C145.161346,105.678429 144.737793,104.305717 144.213730,102.985992 
	C145.444824,103.129158 146.675919,103.272324 148.430649,103.952553 
M89.619705,110.984589 
	C91.631233,110.554176 93.642754,110.123772 95.654282,109.693359 
	C95.121590,108.464798 94.588890,107.236237 93.983505,105.840027 
	C95.707047,103.429321 102.655563,101.193359 105.481514,103.321114 
	C106.999542,104.464081 106.740112,107.967789 107.274422,110.368958 
	C109.655144,110.368958 112.747253,110.368958 116.214851,110.368958 
	C114.456802,107.588036 112.856400,105.545258 111.780724,103.255913 
	C109.341301,98.064072 107.326675,92.667885 104.770233,87.538742 
	C104.026733,86.047005 102.065170,84.331551 100.605873,84.279106 
	C99.342117,84.233688 97.569969,86.162361 96.764641,87.626625 
	C93.159851,94.181007 89.752159,100.847450 86.425034,107.548775 
	C85.361816,109.690262 86.169838,111.087212 89.619705,110.984589 
M182.437927,110.991013 
	C184.183243,110.908508 185.928558,110.826004 186.860748,110.781944 
	C186.192856,105.960876 185.314056,101.695427 185.206177,97.410561 
	C185.178421,96.308304 187.555435,94.265587 188.868774,94.231384 
	C190.524246,94.188255 193.691193,95.836739 193.651123,96.625610 
	C193.460907,100.370026 196.182770,104.903069 191.389648,107.802902 
	C190.979080,108.051292 191.335266,109.567047 191.335266,110.803329 
	C195.364792,110.530380 199.468414,112.430603 201.876633,110.345802 
	C201.083115,106.328888 200.237457,103.679077 200.095413,100.992058 
	C199.792435,95.261177 197.138580,90.366966 192.894836,90.008240 
	C187.377258,89.541847 181.790466,89.894249 176.233475,89.894249 
	C175.976837,90.233681 175.720200,90.573112 175.463547,90.912544 
	C182.636414,97.347580 181.492676,103.935226 175.167496,110.991043 
	C178.270218,110.991043 179.910934,110.991043 182.437927,110.991013 
M127.129715,106.740929 
	C127.087143,105.082932 127.190186,103.405777 126.974976,101.770500 
	C126.302063,96.657562 127.577644,93.208305 134.455048,93.883118 
	C133.737686,92.038635 133.259094,89.756683 132.787720,89.758163 
	C127.896912,89.773567 123.007271,90.156723 117.630486,90.465691 
	C123.653198,98.570961 123.658226,105.485710 118.201767,107.786682 
	C119.364861,110.805283 127.353905,112.481934 129.101120,109.968750 
	C129.301407,109.680649 128.021149,108.363243 127.129715,106.740929 
M168.592529,110.996887 
	C168.923630,110.996941 169.272247,111.065331 169.582901,110.985664 
	C171.248825,110.558464 172.905273,110.094376 174.565002,109.643028 
	C173.586929,108.624031 172.458496,107.705688 171.684692,106.549934 
	C171.186111,105.805244 171.059433,104.717323 171.025650,103.773949 
	C170.936874,101.293762 170.994492,98.808479 170.985855,96.325256 
	C170.962509,89.610085 168.783600,88.315582 162.836777,90.829674 
	C163.907135,93.804405 165.608383,96.662834 165.822357,99.628563 
	C166.058228,102.897690 164.928543,106.265335 164.277100,110.314857 
	C164.759735,110.409256 166.258209,110.702339 168.592529,110.996887 
z"/>
<path fill="#084983" opacity="1.000000" stroke="none" 
	d="
M209.460632,119.000000 
	C207.358719,115.192162 208.786057,114.102097 212.695404,113.997147 
	C215.132843,113.931702 219.093491,115.531036 220.109055,110.117653 
	C218.649765,110.478981 217.937103,110.721313 217.204773,110.826080 
	C212.460617,111.504768 207.903732,110.728065 205.808289,106.088280 
	C203.784546,101.607330 204.130219,96.524536 207.322647,92.590302 
	C210.182343,89.066124 214.196396,89.049698 218.484863,90.634834 
	C220.112350,91.236404 222.324585,90.255943 224.635147,89.998276 
	C225.000000,98.354233 225.000000,106.708466 224.646347,115.441559 
	C223.195129,116.880272 222.097565,117.940132 221.000000,119.000000 
	C217.307098,119.000000 213.614182,119.000000 209.460632,119.000000 
M219.938202,104.001183 
	C219.949158,101.835052 220.355591,99.566765 219.831757,97.538773 
	C219.483612,96.190887 217.980606,94.508347 216.685822,94.175079 
	C214.292114,93.558998 211.090012,93.607315 210.765381,96.890648 
	C210.466568,99.913147 210.426758,103.824104 212.074249,105.943184 
	C213.864609,108.246017 217.520706,107.619263 219.938202,104.001183 
z"/>
<path fill="#064782" opacity="1.000000" stroke="none" 
	d="
M33.458069,119.000000 
	C37.030624,112.610588 36.050838,105.463036 35.927956,98.500130 
	C35.888958,96.290527 34.895634,94.097771 34.243099,91.518082 
	C38.372528,90.990364 43.379322,89.732269 48.344810,89.878349 
	C54.066513,90.046677 58.278618,97.572762 56.903759,103.852776 
	C55.654953,109.556999 50.323627,112.027901 41.708729,110.027824 
	C42.497963,113.153442 43.143826,115.711258 43.894844,118.634537 
	C40.638714,119.000000 37.277424,119.000000 33.458069,119.000000 
M43.302311,94.402702 
	C39.517467,97.685944 43.157516,102.138092 41.599091,105.802162 
	C41.558762,105.896980 42.940105,106.985779 43.565475,106.903603 
	C45.695446,106.623703 48.244175,106.620117 49.788239,105.422157 
	C52.647881,103.203506 52.601181,99.530136 50.608952,97.001671 
	C49.305859,95.347832 46.293480,95.040779 43.302311,94.402702 
z"/>
<path fill="#0B4B84" opacity="1.000000" stroke="none" 
	d="
M1.000001,107.399994 
	C2.424020,105.398163 4.262656,104.004257 5.190730,102.153694 
	C7.540915,97.467453 9.341192,92.506287 11.669142,87.807541 
	C12.415961,86.300156 14.095731,84.316704 15.400366,84.277641 
	C16.814877,84.235283 18.877838,85.903145 19.629641,87.356987 
	C22.032396,92.003456 23.830214,96.958618 26.115707,101.671364 
	C27.538034,104.604240 29.419750,107.314339 31.590723,110.955315 
	C28.445704,110.955315 26.176510,111.102905 23.935350,110.915405 
	C21.506487,110.712196 20.403400,109.642395 21.635855,106.963478 
	C22.080473,105.997047 21.973007,104.016510 21.304031,103.435753 
	C18.996161,101.432220 10.595787,103.502617 8.701171,106.244965 
	C9.459696,107.227272 10.211378,108.200706 11.924769,110.419579 
	C7.798787,110.655556 4.843318,110.824593 1.443924,110.996811 
	C1.000000,109.933327 1.000000,108.866661 1.000001,107.399994 
M14.842311,92.570480 
	C13.935452,94.858810 13.028591,97.147141 12.003562,99.733650 
	C15.031037,99.733650 17.270487,99.733650 21.008896,99.733650 
	C18.636749,96.564522 16.898842,94.242729 14.842311,92.570480 
z"/>
<path fill="#064882" opacity="1.000000" stroke="none" 
	d="
M59.460636,119.000000 
	C59.145538,117.831566 59.291077,116.663139 60.011051,115.489258 
	C61.367622,114.907990 62.149761,114.332184 62.931896,113.756371 
	C62.931896,113.756371 63.022564,113.336700 63.283096,112.776749 
	C63.344864,106.173256 63.146091,100.129715 62.947323,94.086166 
	C61.689129,93.546013 60.430931,93.005852 59.172737,92.465698 
	C59.228458,92.089157 59.284180,91.712624 59.339901,91.336090 
	C64.666122,90.900253 70.006088,90.004448 75.314537,90.163116 
	C80.230019,90.310051 84.269623,96.610161 83.585045,101.860870 
	C82.719940,108.496208 78.742416,111.773506 72.522415,110.926697 
	C71.264725,110.755470 70.029442,110.419701 67.492195,109.890274 
	C68.816010,113.267738 69.788055,115.747719 70.880051,118.613853 
	C67.307091,119.000000 63.614182,119.000000 59.460636,119.000000 
M69.118515,94.610222 
	C68.777962,97.972717 67.839943,101.414391 68.271965,104.674507 
	C68.670479,107.681755 71.153275,108.882416 74.263985,107.181984 
	C78.154961,105.055016 78.571609,101.552422 77.749123,97.818062 
	C76.772560,93.384117 73.291679,93.714966 69.118515,94.610222 
z"/>
<path fill="#000000" opacity="1.000000" stroke="none" 
	d="
M221.500000,119.000000 
	C222.097565,117.940132 223.195129,116.880272 224.646347,115.910202 
	C225.498810,118.498802 224.498810,119.498802 221.500000,119.000000 
z"/>
<path fill="#F6A01E" opacity="1.000000" stroke="none" 
	d="
M97.078873,61.077003 
	C97.078873,62.879902 97.078873,64.682800 97.078873,66.738762 
	C94.026947,66.738762 91.284744,66.738762 88.145981,66.738762 
	C88.057327,64.960648 87.970299,63.214977 87.886055,61.525280 
	C78.599380,60.087212 75.747498,56.714466 75.975563,48.052063 
	C76.103134,43.206615 79.119720,40.893349 82.986313,38.973892 
	C84.486237,38.229305 86.437141,37.119884 86.884125,35.752270 
	C88.637466,30.387711 92.253387,27.169836 98.017242,25.395077 
	C108.514015,25.686617 118.297089,25.806135 128.080154,25.925655 
	C130.687881,27.420355 134.602936,28.305672 135.640762,30.532154 
	C138.064590,35.732021 141.442062,39.205444 146.343079,42.076035 
	C150.455765,44.484890 150.691177,49.304493 149.677765,53.583279 
	C148.527069,58.441574 144.871277,60.662712 138.565048,61.242371 
	C137.372482,67.413116 137.372482,67.413116 129.027527,66.614227 
	C129.027527,65.394043 129.027527,64.122925 129.187683,62.118622 
	C128.602982,60.933041 127.861763,60.093903 127.112747,60.086887 
	C117.561386,59.997463 108.008827,60.012730 98.457001,60.071510 
	C97.995575,60.074348 97.538155,60.726967 97.078873,61.077003 
M99.792351,30.699207 
	C95.270111,31.361855 93.948204,34.671585 93.064102,38.751381 
	C106.440643,38.751381 119.575897,38.751381 132.780579,38.751381 
	C130.813492,31.662903 128.767563,30.054968 121.885483,29.992487 
	C115.257553,29.932314 108.629623,29.872513 102.733589,29.438051 
	C109.836266,29.438051 116.938942,29.438051 124.041618,29.438051 
	C124.035942,28.958792 124.030273,28.479532 124.024597,28.000273 
	C122.556442,28.000273 121.088295,27.999029 119.620148,28.000496 
	C114.302170,28.005806 108.979187,27.890688 103.670013,28.109850 
	C102.460243,28.159790 101.298225,29.366680 99.792351,30.699207 
M142.777771,44.357113 
	C141.128922,43.575062 139.486908,42.130638 137.830139,42.113503 
	C121.407776,41.943653 104.982475,41.955009 88.559654,42.101223 
	C87.048012,42.114681 85.547821,43.414471 83.721451,44.806442 
	C79.653725,52.724339 81.483437,56.002903 89.972046,56.003300 
	C104.906670,56.004002 119.850266,55.695885 134.772217,56.130852 
	C142.445084,56.354511 145.916489,54.177608 142.777771,44.357113 
M93.665108,57.003357 
	C91.376335,57.003357 89.087555,57.003357 86.798782,57.003357 
	C86.801964,57.225498 86.805138,57.447643 86.808319,57.669785 
	C104.215767,57.669785 121.623207,57.669785 139.030655,57.669785 
	C139.030899,57.447643 139.031158,57.225498 139.031403,57.003357 
	C124.226898,57.003357 109.422401,57.003357 93.665108,57.003357 
M99.322777,40.004761 
	C98.525307,40.126583 97.727844,40.248405 96.930374,40.370232 
	C96.959969,40.508190 96.989563,40.646152 97.019157,40.784111 
	C108.724701,40.784111 120.430244,40.784111 132.135788,40.784111 
	C132.138550,40.523922 132.141327,40.263733 132.144089,40.003544 
	C121.473778,40.003544 110.803459,40.003544 99.322777,40.004761 
M92.499863,40.527988 
	C92.499863,40.527988 92.484001,40.486656 92.499863,40.527988 
z"/>
<path fill="#F8A322" opacity="1.000000" stroke="none" 
	d="
M91.618057,17.763916 
	C87.804779,18.823462 84.393318,19.957357 80.893852,20.408098 
	C79.371971,20.604120 77.669281,19.396435 76.048714,18.826283 
	C77.188286,17.624144 78.124542,15.737006 79.499763,15.328844 
	C89.966461,12.222343 100.416786,8.892653 111.097588,6.762527 
	C115.079788,5.968335 119.716850,7.978413 123.959793,9.078255 
	C131.114044,10.932756 138.219193,12.993303 145.281860,15.171864 
	C146.910172,15.674134 148.283096,17.004341 149.773544,17.953543 
	C149.782562,18.505955 149.791580,19.058365 149.800598,19.610777 
	C148.007553,19.797894 146.088623,20.493544 144.442719,20.086176 
	C136.292770,18.069036 128.141983,15.992269 120.137642,13.472274 
	C114.910362,11.826577 110.104012,11.883812 104.991684,13.881371 
	C100.814346,15.513593 96.331535,16.363987 91.618057,17.763916 
z"/>
<path fill="#084982" opacity="1.000000" stroke="none" 
	d="
M148.168823,103.684021 
	C146.675919,103.272324 145.444824,103.129158 144.213730,102.985992 
	C144.737793,104.305717 145.161346,105.678429 145.819656,106.927399 
	C146.294540,107.828354 147.081848,108.564636 147.729828,109.374367 
	C146.793701,109.907417 145.780136,110.994194 144.935089,110.876015 
	C141.583679,110.407364 137.345963,112.860229 134.555664,108.108910 
	C141.958420,105.737289 138.691116,99.989281 138.842667,95.698151 
	C138.994873,91.388260 141.416870,85.933250 135.271133,82.372437 
	C137.877121,82.229362 140.483124,82.086281 143.751160,81.906853 
	C143.751160,87.160515 143.751160,92.042931 143.751160,96.925346 
	C144.241882,97.194038 144.732605,97.462730 145.223328,97.731422 
	C147.127167,95.704948 149.030991,93.678482 151.622147,90.920425 
	C152.981812,91.068275 155.515259,91.343765 158.150482,91.630325 
	C157.795486,92.956146 157.812241,93.370834 157.613785,93.561432 
	C155.479034,95.611549 151.343170,97.929382 151.597763,99.581932 
	C152.011551,102.267738 155.266571,104.534943 157.376266,106.931343 
	C158.273056,107.950012 159.306091,108.848740 161.199997,110.707771 
	C156.566101,110.707771 153.504684,110.707771 151.352753,110.707771 
	C150.205338,108.055199 149.317993,106.003876 148.168823,103.684021 
z"/>
<path fill="#0C4B84" opacity="1.000000" stroke="none" 
	d="
M89.200867,110.979286 
	C86.169838,111.087212 85.361816,109.690262 86.425034,107.548775 
	C89.752159,100.847450 93.159851,94.181007 96.764641,87.626625 
	C97.569969,86.162361 99.342117,84.233688 100.605873,84.279106 
	C102.065170,84.331551 104.026733,86.047005 104.770233,87.538742 
	C107.326675,92.667885 109.341301,98.064072 111.780724,103.255913 
	C112.856400,105.545258 114.456802,107.588036 116.214851,110.368958 
	C112.747253,110.368958 109.655144,110.368958 107.274422,110.368958 
	C106.740112,107.967789 106.999542,104.464081 105.481514,103.321114 
	C102.655563,101.193359 95.707047,103.429321 93.983505,105.840027 
	C94.588890,107.236237 95.121590,108.464798 95.654282,109.693359 
	C93.642754,110.123772 91.631233,110.554176 89.200867,110.979286 
M98.438919,95.138603 
	C98.077370,96.617027 97.715820,98.095451 97.318672,99.719406 
	C100.032417,99.719406 102.272293,99.719406 104.991013,99.719406 
	C103.546600,96.419846 102.281616,93.530174 100.790855,90.124748 
	C99.977608,91.951111 99.408524,93.229141 98.438919,95.138603 
z"/>
<path fill="#0A4A83" opacity="1.000000" stroke="none" 
	d="
M181.994781,110.991028 
	C179.910934,110.991043 178.270218,110.991043 175.167496,110.991043 
	C181.492676,103.935226 182.636414,97.347580 175.463547,90.912544 
	C175.720200,90.573112 175.976837,90.233681 176.233475,89.894249 
	C181.790466,89.894249 187.377258,89.541847 192.894836,90.008240 
	C197.138580,90.366966 199.792435,95.261177 200.095413,100.992058 
	C200.237457,103.679077 201.083115,106.328888 201.876633,110.345802 
	C199.468414,112.430603 195.364792,110.530380 191.335266,110.803329 
	C191.335266,109.567047 190.979080,108.051292 191.389648,107.802902 
	C196.182770,104.903069 193.460907,100.370026 193.651123,96.625610 
	C193.691193,95.836739 190.524246,94.188255 188.868774,94.231384 
	C187.555435,94.265587 185.178421,96.308304 185.206177,97.410561 
	C185.314056,101.695427 186.192856,105.960876 186.860748,110.781944 
	C185.928558,110.826004 184.183243,110.908508 181.994781,110.991028 
z"/>
<path fill="#0A4A85" opacity="1.000000" stroke="none" 
	d="
M127.278542,107.132004 
	C128.021149,108.363243 129.301407,109.680649 129.101120,109.968750 
	C127.353905,112.481934 119.364861,110.805283 118.201767,107.786682 
	C123.658226,105.485710 123.653198,98.570961 117.630486,90.465691 
	C123.007271,90.156723 127.896912,89.773567 132.787720,89.758163 
	C133.259094,89.756683 133.737686,92.038635 134.455048,93.883118 
	C127.577644,93.208305 126.302063,96.657562 126.974976,101.770500 
	C127.190186,103.405777 127.087143,105.082932 127.278542,107.132004 
z"/>
<path fill="#064882" opacity="1.000000" stroke="none" 
	d="
M168.174622,110.996155 
	C166.258209,110.702339 164.759735,110.409256 164.277100,110.314857 
	C164.928543,106.265335 166.058228,102.897690 165.822357,99.628563 
	C165.608383,96.662834 163.907135,93.804405 162.836777,90.829674 
	C168.783600,88.315582 170.962509,89.610085 170.985855,96.325256 
	C170.994492,98.808479 170.936874,101.293762 171.025650,103.773949 
	C171.059433,104.717323 171.186111,105.805244 171.684692,106.549934 
	C172.458496,107.705688 173.586929,108.624031 174.565002,109.643036 
	C172.905273,110.094376 171.248825,110.558464 169.582901,110.985664 
	C169.272247,111.065331 168.923630,110.996941 168.174622,110.996155 
z"/>
<path fill="#F4AF42" opacity="1.000000" stroke="none" 
	d="
M97.542679,61.043385 
	C97.538155,60.726967 97.995575,60.074348 98.457001,60.071510 
	C108.008827,60.012730 117.561386,59.997463 127.112747,60.086887 
	C127.861763,60.093903 128.602982,60.933041 129.258057,61.681496 
	C127.662918,61.651661 126.160164,61.058479 124.651787,61.043858 
	C115.770744,60.957783 106.888390,61.006474 97.542679,61.043385 
z"/>
<path fill="#F4AF42" opacity="1.000000" stroke="none" 
	d="
M127.845551,25.558075 
	C118.297089,25.806135 108.514015,25.686617 98.371155,25.366314 
	C107.877884,25.173851 117.744415,25.182173 127.845551,25.558075 
z"/>
<path fill="#135086" opacity="1.000000" stroke="none" 
	d="
M62.969063,94.548187 
	C63.146091,100.129715 63.344864,106.173256 63.352760,112.573692 
	C63.104862,106.957123 63.047832,100.983665 62.969063,94.548187 
z"/>
<path fill="#135086" opacity="1.000000" stroke="none" 
	d="
M62.613125,113.818207 
	C62.149761,114.332184 61.367622,114.907990 60.333797,115.332016 
	C60.819523,114.746834 61.556938,114.313431 62.613125,113.818207 
z"/>
<path fill="#000000" opacity="1.000000" stroke="none" 
	d="
M219.875092,104.429092 
	C217.520706,107.619263 213.864609,108.246017 212.074249,105.943184 
	C210.426758,103.824104 210.466568,99.913147 210.765381,96.890648 
	C211.090012,93.607315 214.292114,93.558998 216.685822,94.175079 
	C217.980606,94.508347 219.483612,96.190887 219.831757,97.538773 
	C220.355591,99.566765 219.949158,101.835052 219.875092,104.429092 
z"/>
<path fill="#000000" opacity="1.000000" stroke="none" 
	d="
M43.674507,94.266602 
	C46.293480,95.040779 49.305859,95.347832 50.608952,97.001671 
	C52.601181,99.530136 52.647881,103.203506 49.788239,105.422157 
	C48.244175,106.620117 45.695446,106.623703 43.565475,106.903603 
	C42.940105,106.985779 41.558762,105.896980 41.599091,105.802162 
	C43.157516,102.138092 39.517467,97.685944 43.674507,94.266602 
z"/>
<path fill="#000000" opacity="1.000000" stroke="none" 
	d="
M15.001623,92.245705 
	C16.898842,94.242729 18.636749,96.564522 21.008896,99.733650 
	C17.270487,99.733650 15.031037,99.733650 12.003562,99.733650 
	C13.028591,97.147141 13.935452,94.858810 15.001623,92.245705 
z"/>
<path fill="#000000" opacity="1.000000" stroke="none" 
	d="
M69.501274,94.407120 
	C73.291679,93.714966 76.772560,93.384117 77.749123,97.818062 
	C78.571609,101.552422 78.154961,105.055016 74.263985,107.181984 
	C71.153275,108.882416 68.670479,107.681755 68.271965,104.674507 
	C67.839943,101.414391 68.777962,97.972717 69.501274,94.407120 
z"/>
<path fill="#000000" opacity="1.000000" stroke="none" 
	d="
M142.946991,45.112419 
	C145.916489,54.177608 142.445084,56.354511 134.772217,56.130852 
	C119.850266,55.695885 104.906670,56.004002 89.972046,56.003300 
	C81.483437,56.002903 79.653725,52.724339 84.345139,44.408653 
	C102.229713,44.005337 119.490776,43.962254 136.751266,44.043655 
	C138.818146,44.053406 140.881821,44.739704 142.946991,45.112419 
M88.380112,50.866596 
	C92.651474,54.645012 93.452087,54.549213 96.899170,49.847214 
	C92.537468,44.834164 89.957939,44.933388 88.380112,50.866596 
M130.162537,47.351624 
	C130.195236,49.085518 129.556396,51.587696 130.434097,52.354885 
	C131.483444,53.272114 133.895370,53.008392 135.583725,52.641819 
	C136.320633,52.481819 137.312408,50.009720 137.192841,49.920403 
	C135.701065,48.806042 134.047897,47.894699 132.382156,47.036045 
	C131.996582,46.837299 131.407410,47.033535 130.162537,47.351624 
z"/>
<path fill="#000000" opacity="1.000000" stroke="none" 
	d="
M102.001694,29.812550 
	C108.629623,29.872513 115.257553,29.932314 121.885483,29.992487 
	C128.767563,30.054968 130.813492,31.662903 132.780579,38.751381 
	C119.575897,38.751381 106.440643,38.751381 93.064102,38.751381 
	C93.948204,34.671585 95.270111,31.361855 100.268692,30.341969 
	C101.163918,29.927336 101.582809,29.869942 102.001694,29.812550 
z"/>
<path fill="#F9A624" opacity="1.000000" stroke="none" 
	d="
M142.862381,44.734764 
	C140.881821,44.739704 138.818146,44.053406 136.751266,44.043655 
	C119.490776,43.962254 102.229713,44.005337 84.505569,44.063911 
	C85.547821,43.414471 87.048012,42.114681 88.559654,42.101223 
	C104.982475,41.955009 121.407776,41.943653 137.830139,42.113503 
	C139.486908,42.130638 141.128922,43.575062 142.862381,44.734764 
z"/>
<path fill="#FFA518" opacity="1.000000" stroke="none" 
	d="
M94.141502,57.003357 
	C109.422401,57.003357 124.226898,57.003357 139.031403,57.003357 
	C139.031158,57.225498 139.030899,57.447643 139.030655,57.669785 
	C121.623207,57.669785 104.215767,57.669785 86.808319,57.669785 
	C86.805138,57.447643 86.801964,57.225498 86.798782,57.003357 
	C89.087555,57.003357 91.376335,57.003357 94.141502,57.003357 
z"/>
<path fill="#FFA518" opacity="1.000000" stroke="none" 
	d="
M99.727966,40.004150 
	C110.803459,40.003544 121.473778,40.003544 132.144089,40.003544 
	C132.141327,40.263733 132.138550,40.523922 132.135788,40.784111 
	C120.430244,40.784111 108.724701,40.784111 97.019157,40.784111 
	C96.989563,40.646152 96.959969,40.508190 96.930374,40.370232 
	C97.727844,40.248405 98.525307,40.126583 99.727966,40.004150 
z"/>
<path fill="#FFA518" opacity="1.000000" stroke="none" 
	d="
M102.367645,29.625301 
	C101.582809,29.869942 101.163918,29.927336 100.429626,30.012897 
	C101.298225,29.366680 102.460243,28.159790 103.670013,28.109850 
	C108.979187,27.890688 114.302170,28.005806 119.620148,28.000496 
	C121.088295,27.999029 122.556442,28.000273 124.024597,28.000273 
	C124.030273,28.479532 124.035942,28.958792 124.041618,29.438051 
	C116.938942,29.438051 109.836266,29.438051 102.367645,29.625301 
z"/>
<path fill="#FFA518" opacity="1.000000" stroke="none" 
	d="
M92.491928,40.507324 
	C92.484001,40.486656 92.499863,40.527988 92.491928,40.507324 
z"/>
<path fill="#000000" opacity="1.000000" stroke="none" 
	d="
M98.639175,94.822891 
	C99.408524,93.229141 99.977608,91.951111 100.790855,90.124748 
	C102.281616,93.530174 103.546600,96.419846 104.991013,99.719406 
	C102.272293,99.719406 100.032417,99.719406 97.318672,99.719406 
	C97.715820,98.095451 98.077370,96.617027 98.639175,94.822891 
z"/>
<path fill="#F6A222" opacity="1.000000" stroke="none" 
	d="
M88.219925,50.526917 
	C89.957939,44.933388 92.537468,44.834164 96.899170,49.847214 
	C93.452087,54.549213 92.651474,54.645012 88.219925,50.526917 
z"/>
<path fill="#F6A222" opacity="1.000000" stroke="none" 
	d="
M130.537231,47.199821 
	C131.407410,47.033535 131.996582,46.837299 132.382156,47.036045 
	C134.047897,47.894699 135.701065,48.806042 137.192841,49.920403 
	C137.312408,50.009720 136.320633,52.481819 135.583725,52.641819 
	C133.895370,53.008392 131.483444,53.272114 130.434097,52.354885 
	C129.556396,51.587696 130.195236,49.085518 130.537231,47.199821 
z"/>
</svg>